<?xml version="1.0" encoding="UTF-8" standalone="no"?>
<svg
   xmlns:dc="http://purl.org/dc/elements/1.1/"
   xmlns:cc="http://creativecommons.org/ns#"
   xmlns:rdf="http://www.w3.org/1999/02/22-rdf-syntax-ns#"
   xmlns:svg="http://www.w3.org/2000/svg"
   xmlns="http://www.w3.org/2000/svg"
   xmlns:sodipodi="http://sodipodi.sourceforge.net/DTD/sodipodi-0.dtd"
   xmlns:inkscape="http://www.inkscape.org/namespaces/inkscape"
   style="enable-background:new 0 0 100 100;"
   version="1.1"
   viewBox="0 0 100 100"
   xml:space="preserve"
   id="svg24"
   sodipodi:docname="dobleArrow.svg"
   inkscape:version="1.0.2 (e86c870879, 2021-01-15)"><metadata
     id="metadata30"><rdf:RDF><cc:Work
         rdf:about=""><dc:format>image/svg+xml</dc:format><dc:type
           rdf:resource="http://purl.org/dc/dcmitype/StillImage" /></cc:Work></rdf:RDF></metadata><defs
     id="defs28" /><sodipodi:namedview
     pagecolor="#ffffff"
     bordercolor="#666666"
     borderopacity="1"
     objecttolerance="10"
     gridtolerance="10"
     guidetolerance="10"
     inkscape:pageopacity="0"
     inkscape:pageshadow="2"
     inkscape:window-width="1920"
     inkscape:window-height="1054"
     id="namedview26"
     showgrid="false"
     inkscape:zoom="8.51"
     inkscape:cx="50.117509"
     inkscape:cy="50"
     inkscape:window-x="0"
     inkscape:window-y="0"
     inkscape:window-maximized="1"
     inkscape:current-layer="svg24" /><g
     id="blue"
     transform="rotate(90,50.000188,50)"><g
       id="Layer_8_copy_2"><path
         d="m 42.262,27.26 v 8.294 c 0,0.571 0.305,1.1 0.8,1.385 l 20.212,11.669 c 1.066,0.616 1.066,2.155 0,2.771 L 43.062,63.048 c -0.495,0.286 -0.8,0.814 -0.8,1.385 v 8.294 c 0,1.231 1.333,2.001 2.399,1.385 L 84.036,51.379 c 1.066,-0.616 1.066,-2.155 0,-2.771 L 44.661,25.875 c -1.066,-0.616 -2.399,0.154 -2.399,1.385 z"
         style="fill:#415c8c"
         id="path2" /><path
         d="m 65.1,49.08 c -1.003,-0.57 -2.006,-1.14 -3.009,-1.71 0.486,0.484 0.972,0.968 1.458,1.452 0.772,0.703 0.685,2.002 -0.276,2.557 L 43.062,63.048 c -0.495,0.286 -0.8,0.814 -0.8,1.385 v 8.294 c 0,1.115 1.092,1.84 2.091,1.512 -0.054,-0.16 -0.091,-0.328 -0.091,-0.512 v -8.294 c 0,-0.571 0.305,-1.1 0.8,-1.385 L 65.274,52.379 c 0.112,-0.085 0.717,-0.56 0.8,-1.385 0.074,-0.745 -0.305,-1.486 -0.974,-1.914 z"
         style="opacity:0.6;fill:#ffffff"
         id="path4" /><path
         d="m 45.062,37.939 c -0.495,-0.286 -0.8,-0.814 -0.8,-1.385 V 28.26 c 0,-1.008 0.894,-1.693 1.803,-1.575 l -1.403,-0.81 c -1.066,-0.616 -2.399,0.154 -2.399,1.385 v 8.294 c 0,0.571 0.305,1.1 0.8,1.385 l 1.902,1.098 c 0.048,-0.024 0.095,-0.048 0.143,-0.072 z"
         style="opacity:0.6;fill:#ffffff"
         id="path6" /><path
         d="M 84.037,48.608 44.661,25.875 c -0.193,-0.112 -0.395,-0.164 -0.597,-0.19 l 37.972,21.923 c 1.066,0.616 1.066,2.155 0,2.771 L 42.661,73.112 c -0.1,0.058 -0.205,0.092 -0.308,0.126 0.308,0.914 1.401,1.398 2.308,0.874 L 84.036,51.379 c 1.067,-0.616 1.067,-2.155 0.001,-2.771 z"
         id="path8" /><path
         d="m 42.262,27.26 v 8.294 c 0,0.571 0.305,1.1 0.8,1.385 l 20.212,11.669 c 1.066,0.616 1.066,2.155 0,2.771 L 43.062,63.048 c -0.495,0.286 -0.8,0.814 -0.8,1.385 v 8.294 c 0,1.231 1.333,2.001 2.399,1.385 L 84.036,51.379 c 1.066,-0.616 1.066,-2.155 0,-2.771 L 44.661,25.875 c -1.066,-0.616 -2.399,0.154 -2.399,1.385 z"
         style="fill:none;stroke:#000000;stroke-miterlimit:10"
         id="path10" /><path
         d="m 15.164,27.273 v 8.294 c 0,0.571 0.305,1.1 0.8,1.385 l 20.212,11.669 c 1.066,0.616 1.066,2.155 0,2.771 L 15.964,63.061 c -0.495,0.286 -0.8,0.814 -0.8,1.385 v 8.294 c 0,1.231 1.333,2.001 2.399,1.385 L 56.938,51.392 c 1.066,-0.616 1.066,-2.155 0,-2.771 L 17.563,25.888 c -1.066,-0.616 -2.399,0.154 -2.399,1.385 z"
         style="fill:#415c8c"
         id="path12" /><path
         d="m 38.002,49.093 c -1.003,-0.57 -2.006,-1.14 -3.009,-1.71 0.486,0.484 0.972,0.968 1.458,1.452 0.772,0.703 0.685,2.002 -0.276,2.557 L 15.964,63.061 c -0.495,0.286 -0.8,0.814 -0.8,1.385 v 8.294 c 0,1.115 1.092,1.84 2.091,1.512 -0.054,-0.16 -0.091,-0.328 -0.091,-0.512 v -8.294 c 0,-0.571 0.305,-1.1 0.8,-1.385 L 38.176,52.392 c 0.112,-0.085 0.717,-0.56 0.8,-1.385 0.074,-0.745 -0.305,-1.486 -0.974,-1.914 z"
         style="opacity:0.6;fill:#ffffff"
         id="path14" /><path
         d="m 17.964,37.939 c -0.495,-0.286 -0.8,-0.814 -0.8,-1.385 V 28.26 c 0,-1.008 0.894,-1.693 1.803,-1.575 l -1.403,-0.81 c -1.066,-0.616 -2.399,0.154 -2.399,1.385 v 8.294 c 0,0.571 0.305,1.1 0.8,1.385 l 1.902,1.098 c 0.048,-0.024 0.095,-0.048 0.143,-0.072 z"
         style="opacity:0.6;fill:#ffffff"
         id="path16" /><path
         d="M 56.938,48.621 17.563,25.888 c -0.193,-0.112 -0.395,-0.164 -0.597,-0.19 l 37.972,21.923 c 1.066,0.616 1.066,2.155 0,2.771 L 15.563,73.125 c -0.1,0.058 -0.205,0.092 -0.308,0.126 0.308,0.914 1.401,1.398 2.308,0.874 L 56.938,51.392 c 1.067,-0.616 1.067,-2.155 0,-2.771 z"
         id="path18" /><path
         d="m 15.164,27.273 v 8.294 c 0,0.571 0.305,1.1 0.8,1.385 l 20.212,11.669 c 1.066,0.616 1.066,2.155 0,2.771 L 15.964,63.061 c -0.495,0.286 -0.8,0.814 -0.8,1.385 v 8.294 c 0,1.231 1.333,2.001 2.399,1.385 L 56.938,51.392 c 1.066,-0.616 1.066,-2.155 0,-2.771 L 17.563,25.888 c -1.066,-0.616 -2.399,0.154 -2.399,1.385 z"
         style="fill:none;stroke:#000000;stroke-miterlimit:10"
         id="path20" /></g></g></svg>
