<?xml version="1.0" encoding="UTF-8" standalone="no"?>
<svg
   xmlns:dc="http://purl.org/dc/elements/1.1/"
   xmlns:cc="http://creativecommons.org/ns#"
   xmlns:rdf="http://www.w3.org/1999/02/22-rdf-syntax-ns#"
   xmlns:svg="http://www.w3.org/2000/svg"
   xmlns="http://www.w3.org/2000/svg"
   xmlns:sodipodi="http://sodipodi.sourceforge.net/DTD/sodipodi-0.dtd"
   xmlns:inkscape="http://www.inkscape.org/namespaces/inkscape"
   id="Capa_1"
   enable-background="new 0 0 512 512"
   height="512"
   viewBox="0 0 512 512"
   width="512"
   version="1.1"
   sodipodi:docname="favicon.svg"
   inkscape:version="1.0.2 (e86c870879, 2021-01-15)">
  <metadata
     id="metadata142">
    <rdf:RDF>
      <cc:Work
         rdf:about="">
        <dc:format>image/svg+xml</dc:format>
        <dc:type
           rdf:resource="http://purl.org/dc/dcmitype/StillImage" />
      </cc:Work>
    </rdf:RDF>
  </metadata>
  <defs
     id="defs140" />
  <sodipodi:namedview
     pagecolor="#ffffff"
     bordercolor="#666666"
     borderopacity="1"
     objecttolerance="10"
     gridtolerance="10"
     guidetolerance="10"
     inkscape:pageopacity="0"
     inkscape:pageshadow="2"
     inkscape:window-width="1920"
     inkscape:window-height="1020"
     id="namedview138"
     showgrid="false"
     inkscape:zoom="1.2832573"
     inkscape:cx="213.9494"
     inkscape:cy="253.39452"
     inkscape:window-x="1920"
     inkscape:window-y="34"
     inkscape:window-maximized="1"
     inkscape:current-layer="g133" />
  <g
     id="g135">
    <path
       d="m330.252 96.212s110.754-37.078 181.748 33.915c0 0-29.418 70.056-87.598 70.056"
       fill="#934d36"
       id="path95"
       style="fill:#333333;fill-opacity:1" />
    <path
       d="m365.682 135.355 58.72 64.829c58.174 0 87.596-70.052 87.596-70.052s-.01 0-.021-.01c-1.277-.464-66.024-23.921-117.049 3.441z"
       fill="#f1d0a5"
       id="path97" />
    <path
       d="m373.964 17.834-5.068 103.924-72.864-19.285 11.888-23.478 35.119-69.351c3.482-6.882 11.311-10.395 18.77-8.416 7.458 1.978 12.526 8.89 12.155 16.606z"
       fill="#f6f1f1"
       id="path99" />
    <path
       d="m361.808 1.228c-9.797-1.906-24.415 85.855-24.415 85.855l-29.473-8.087 35.119-69.351c3.481-6.882 11.311-10.395 18.769-8.417z"
       fill="#dfdfdf"
       id="path101" />
    <path
       d="m181.748 96.217s-110.754-37.078-181.748 33.915c0 0 29.418 70.056 87.598 70.056"
       fill="#934d36"
       id="path103"
       style="fill:#333333;fill-opacity:1" />
    <path
       d="m146.318 135.359-58.72 64.829c-58.174 0-87.596-70.052-87.596-70.052s.01 0 .021-.01c1.277-.464 66.024-23.921 117.049 3.441z"
       fill="#f1d0a5"
       id="path105" />
    <path
       d="m215.966 102.484-72.854 19.275-.628-12.949-4.44-90.975c-.381-7.706 4.687-14.628 12.146-16.606 3.235-.855 6.552-.68 9.539.36 3.904 1.35 7.263 4.172 9.23 8.066z"
       fill="#f6f1f1"
       id="path107" />
    <path
       d="m177.52 112.199-35.036-3.389-4.44-90.975c-.381-7.706 4.687-14.628 12.146-16.606 3.235-.855 6.552-.68 9.539.36-16.926-2.267 17.791 110.61 17.791 110.61z"
       fill="#dfdfdf"
       id="path109" />
    <path
       d="m429.728 246.626c0 27.773-5.553 54.136-15.514 77.871-27.32 65.138-87.884 110.425-158.214 110.425-95.951 0-173.729-84.309-173.729-188.295 0-103.996 77.778-188.296 173.729-188.296 13.526 0 26.682 1.679 39.322 4.842 77.004 19.305 134.406 94.116 134.406 183.453z"
       fill="#aa593d"
       id="path111"
       style="fill:#333333;fill-opacity:0.91261137" />
    <path
       d="m429.728 246.626c0 27.773-5.553 54.136-15.514 77.871l-97.62-97.619c-39.858-26.589-56.042-128.937-21.273-163.705 77.005 19.305 134.407 94.116 134.407 183.453z"
       fill="#f6f1f1"
       id="path113" />
    <path
       d="m255.991 434.917c-95.94 0-173.719-84.309-173.719-188.295 0-103.996 77.778-188.296 173.719-188.296-41.248 0-74.688 84.299-74.688 188.296 0 103.986 33.44 188.295 74.688 188.295z"
       fill="#934d36"
       id="path115"
       style="fill:#333333;fill-opacity:1" />
    <ellipse
       cx="255.999"
       cy="365.432"
       fill="#f1d0a5"
       rx="193.213"
       ry="145.888"
       id="ellipse117" />
    <path
       d="m254.718 511.305c-106.118-.516-191.932-65.623-191.932-145.873 0-80.261 85.814-145.368 191.932-145.883-53.847 1.01-97.28 65.931-97.28 145.883.001 79.941 43.433 144.863 97.28 145.873z"
       fill="#f1b986"
       id="path119" />
    <g
       fill="#454045"
       id="g133">
      <g
         id="g125"
         style="fill:#000000;fill-opacity:1">
        <ellipse
           cx="154.68"
           cy="186.681"
           rx="19.613"
           ry="29.291"
           id="ellipse121"
           style="fill:#000000;fill-opacity:1" />
        <ellipse
           cx="357.317"
           cy="186.681"
           rx="19.613"
           ry="29.291"
           id="ellipse123"
           style="fill:#000000;fill-opacity:1" />
      </g>
      <g
         id="g131">
        <ellipse
           cx="202.557"
           cy="370.277"
           rx="21.925"
           ry="38.368"
           id="ellipse127" />
        <ellipse
           cx="309.441"
           cy="370.277"
           rx="21.925"
           ry="38.368"
           id="ellipse129" />
      </g>
    </g>
  </g>
</svg>
